<svg width="93" height="30" viewBox="0 0 93 30" fill="none" xmlns="http://www.w3.org/2000/svg">
<g clip-path="url(#clip0_236_7151)">
<path d="M2.65175 0.0201416V8.45158H5.59321C6.26041 8.45185 6.92048 8.58908 7.53272 8.85481C8.13051 9.09561 8.67684 9.44873 9.14228 9.89514C9.59919 10.3432 9.9606 10.8796 10.2046 11.4718C10.4675 12.086 10.6044 12.7469 10.607 13.4153V25.0806C10.5991 25.3872 10.6568 25.6919 10.7762 25.9743C10.8955 26.2566 11.0738 26.5101 11.2991 26.7177C11.7357 27.1443 12.323 27.3806 12.9328 27.375H23.8375V30.0322H12.9328C12.2658 30.0301 11.6061 29.8929 10.9933 29.629C10.3963 29.3848 9.85037 29.0305 9.3837 28.5847C8.93019 28.1415 8.56909 27.6124 8.32139 27.0282C8.05373 26.4084 7.91674 25.7398 7.919 25.0645V13.3831C7.92532 13.0763 7.86653 12.7718 7.74652 12.4895C7.62651 12.2073 7.44802 11.9538 7.22288 11.746C6.78584 11.3204 6.19849 11.0856 5.58918 11.0927H2.64772V30H0.00805664V0.0201416H2.65175ZM18.2564 8.41127H18.8278C19.4948 8.41345 20.1545 8.5506 20.7673 8.8145C21.3668 9.06287 21.9132 9.42426 22.3768 9.87902C23.3075 10.821 23.8283 12.0938 23.8254 13.4193V19.8467C23.8232 20.5151 23.6864 21.1762 23.423 21.7903C23.1767 22.3919 22.8159 22.9397 22.3607 23.4032C21.4207 24.3358 20.1506 24.8577 18.8278 24.8548H18.2564C17.5894 24.8526 16.9297 24.7155 16.3169 24.4516C15.7208 24.2057 15.1791 23.844 14.7233 23.3872C14.2675 22.9304 13.9065 22.3877 13.6611 21.7903C13.3977 21.1762 13.2609 20.5151 13.2587 19.8467V13.3831C13.2595 12.0574 13.7814 10.7855 14.7113 9.84272C15.1742 9.38709 15.7208 9.02559 16.3209 8.77819C16.9336 8.52037 17.5918 8.38874 18.2564 8.39111V8.41127ZM18.8278 11.0725H18.2564C17.9497 11.0688 17.6454 11.1265 17.3613 11.2422C17.0772 11.3579 16.819 11.5294 16.602 11.7465C16.3849 11.9636 16.2134 12.222 16.0974 12.5065C15.9814 12.791 15.9233 13.0959 15.9265 13.4032V19.8306C15.9239 20.138 15.9823 20.4428 16.0984 20.7272C16.2146 21.0117 16.3861 21.2702 16.6029 21.4875C16.8198 21.7048 17.0777 21.8767 17.3616 21.9931C17.6455 22.1094 17.9497 22.168 18.2564 22.1653H18.8278C19.1315 22.1681 19.4327 22.1096 19.7134 21.9932C19.9941 21.8768 20.2485 21.705 20.4615 21.4879C20.6856 21.2752 20.863 21.0179 20.9821 20.7325C21.1013 20.4471 21.1597 20.1399 21.1536 19.8306V13.3831C21.1597 13.0738 21.1013 12.7666 20.9821 12.4812C20.863 12.1958 20.6856 11.9385 20.4615 11.7258C20.2478 11.51 19.9931 11.3392 19.7125 11.2236C19.432 11.1079 19.1311 11.0497 18.8278 11.0524V11.0725Z" fill="#D1C693"/>
<path d="M29.2013 30H26.5657V0.0201416H29.2214L29.2013 30Z" fill="#D1C693"/>
<path d="M42.4761 29.9999H39.8203V29.4274C39.1054 29.8109 38.3055 30.0078 37.4945 29.9999H36.9191C36.2521 29.9974 35.5925 29.8603 34.9796 29.5967C34.3827 29.3525 33.8367 28.9982 33.37 28.5524C32.9154 28.1058 32.5483 27.5779 32.2876 26.9959C32.0147 26.3778 31.8774 25.7081 31.8852 25.0322V13.4274C31.8874 12.7577 32.0243 12.0953 32.2876 11.4798C32.5367 10.8748 32.9049 10.3263 33.37 9.86688C33.837 9.41732 34.3826 9.05782 34.9796 8.80639C35.5976 8.53638 36.2651 8.39902 36.9393 8.40317H42.4962L42.4761 29.9999ZM39.8203 25.0483V11.0927H36.9191C36.6074 11.0884 36.2981 11.1481 36.0102 11.2681C35.7223 11.388 35.462 11.5657 35.2452 11.7903C35.0241 12.0011 34.8487 12.2552 34.7296 12.5368C34.6106 12.8184 34.5505 13.1216 34.5531 13.4274V25.0483C34.5452 25.3549 34.6029 25.6596 34.7223 25.942C34.8417 26.2243 35.02 26.4778 35.2452 26.6854C35.6949 27.1171 36.2965 27.3533 36.9191 27.3427H37.4945C38.103 27.3477 38.6888 27.1114 39.1242 26.6854C39.3508 26.4787 39.5303 26.2255 39.6504 25.9429C39.7705 25.6604 39.8285 25.3553 39.8203 25.0483Z" fill="#D1C693"/>
<path d="M47.8239 0.0201416V8.45158H50.7653C52.0872 8.45345 53.3556 8.97464 54.2983 9.90321C55.2292 10.847 55.7512 12.1205 55.7509 13.4476V25.0685C55.7551 25.7441 55.618 26.413 55.3485 27.0322C55.1023 27.6172 54.741 28.1466 54.2862 28.5887C53.8209 29.0363 53.2746 29.3908 52.6767 29.633C52.0639 29.8969 51.4042 30.0341 50.7372 30.0363H45.144V0.0201416H47.8239ZM47.8239 11.1129V27.3629H50.7653C51.3751 27.3685 51.9624 27.1322 52.399 26.7056C52.6248 26.4982 52.8037 26.2449 52.9237 25.9625C53.0438 25.6802 53.1022 25.3754 53.0951 25.0685V13.4274C53.0828 12.8121 52.8334 12.2254 52.3991 11.7902C51.9648 11.355 51.3794 11.1051 50.7653 11.0927L47.8239 11.1129Z" fill="#D1C693"/>
<path d="M69.0217 23.3306V25.0483C69.0239 25.7237 68.887 26.3922 68.6193 27.012C68.373 27.5971 68.0118 28.1264 67.557 28.5685C67.091 29.0153 66.5449 29.3696 65.9474 29.6129C65.3346 29.8768 64.6749 30.0139 64.0079 30.0161H63.4365C62.7695 30.0139 62.1098 29.8768 61.497 29.6129C60.9001 29.3686 60.3541 29.0144 59.8875 28.5685C59.4316 28.123 59.0643 27.5948 58.805 27.012C58.5301 26.3945 58.3928 25.7244 58.4027 25.0483V13.383C58.3978 12.7139 58.535 12.0514 58.805 11.4395C59.0621 10.8495 59.4295 10.3143 59.8875 9.86284C60.3543 9.4182 60.9003 9.06533 61.497 8.82254C62.1093 8.55681 62.7693 8.41958 63.4365 8.41931H64.0079C64.6751 8.41958 65.3352 8.55681 65.9474 8.82254C66.5447 9.06439 67.0908 9.41736 67.557 9.86284C68.0139 10.3109 68.3753 10.8473 68.6193 11.4395C68.8823 12.0537 69.0192 12.7147 69.0217 13.383V20.4637H61.0987V25.0483C61.0916 25.3552 61.15 25.66 61.2701 25.9423C61.3901 26.2247 61.569 26.478 61.7948 26.6854C62.2445 27.1171 62.8461 27.3533 63.4687 27.3427H64.0401C64.6499 27.3483 65.2372 27.112 65.6738 26.6854C65.8996 26.478 66.0785 26.2247 66.1985 25.9423C66.3186 25.66 66.377 25.3552 66.3699 25.0483V23.3306H69.0217ZM66.3699 17.8064V13.3709C66.3763 13.0642 66.3175 12.7596 66.1975 12.4774C66.0774 12.1952 65.899 11.9417 65.6738 11.7338C65.2368 11.3083 64.6494 11.0735 64.0401 11.0806H63.4687C62.8466 11.0685 62.2449 11.3033 61.7948 11.7338C61.5696 11.9417 61.3912 12.1952 61.2711 12.4774C61.1511 12.7596 61.0923 13.0642 61.0987 13.3709V17.8064H66.3699Z" fill="#D1C693"/>
<path d="M74.3734 30H71.7177V0.0201416H74.3734V30Z" fill="#D1C693"/>
<path d="M79.7252 30H77.0695V0.0201416H79.7252V30Z" fill="#D1C693"/>
<path d="M93 29.9999H90.3442V29.4274C89.6281 29.8116 88.8267 30.0085 88.0144 29.9999H87.443C86.776 29.9978 86.1163 29.8606 85.5035 29.5967C84.9066 29.3525 84.3606 28.9982 83.8939 28.5524C83.4381 28.1069 83.0708 27.5787 82.8115 26.9959C82.5366 26.3784 82.3993 25.7083 82.4092 25.0322V13.4274C82.4113 12.7577 82.5482 12.0953 82.8115 11.4798C83.0591 10.8739 83.4274 10.3251 83.8939 9.86688C84.3609 9.41732 84.9065 9.05782 85.5035 8.80639C86.1215 8.53638 86.789 8.39902 87.4632 8.40317H93V29.9999ZM90.3442 25.0483V11.0927H87.443C87.1313 11.0884 86.822 11.1481 86.5341 11.2681C86.2462 11.388 85.9859 11.5657 85.7691 11.7903C85.5475 12.0009 85.3714 12.2549 85.2517 12.5365C85.1319 12.8181 85.0711 13.1213 85.073 13.4274V25.0483C85.0659 25.3552 85.1243 25.66 85.2444 25.9423C85.3644 26.2247 85.5433 26.478 85.7691 26.6854C86.2188 27.1171 86.8204 27.3533 87.443 27.3427H88.0144C88.6242 27.3483 89.2115 27.112 89.6481 26.6854C89.8739 26.478 90.0528 26.2247 90.1728 25.9423C90.2929 25.66 90.3513 25.3552 90.3442 25.0483Z" fill="#D1C693"/>
</g>
<defs>
<clipPath id="clip0_236_7151">
<rect width="93" height="30" fill="white"/>
</clipPath>
</defs>
</svg>
