<svg width="232" height="75" viewBox="0 0 232 75" fill="none" xmlns="http://www.w3.org/2000/svg">
<g clip-path="url(#clip0_146_4818)">
<path d="M6.59 0.450012V21.36H13.9C15.5581 21.3607 17.1985 21.701 18.72 22.36C20.2056 22.9572 21.5633 23.8329 22.72 24.94C23.8555 26.0513 24.7537 27.3815 25.36 28.85C26.0134 30.3733 26.3535 32.0125 26.36 33.67V62.6C26.3405 63.3603 26.4838 64.1159 26.7805 64.8162C27.0772 65.5165 27.5202 66.1452 28.08 66.66C29.1651 67.718 30.6245 68.304 32.14 68.29H59.24V74.88H32.14C30.4824 74.8746 28.8429 74.5345 27.32 73.88C25.8365 73.2742 24.4797 72.3958 23.32 71.29C22.1929 70.191 21.2955 68.8789 20.68 67.43C20.0148 65.8929 19.6743 64.2349 19.68 62.56V33.59C19.6957 32.8294 19.5496 32.074 19.2513 31.3741C18.9531 30.6741 18.5095 30.0456 17.95 29.53C16.8639 28.4748 15.4042 27.8923 13.89 27.91H6.57999V74.8H0.019989V0.450012H6.59ZM45.37 21.26H46.79C48.4476 21.2654 50.0871 21.6056 51.61 22.26C53.1 22.876 54.4579 23.7722 55.61 24.9C57.923 27.2361 59.2172 30.3926 59.21 33.68V49.62C59.2046 51.2776 58.8644 52.917 58.21 54.44C57.5978 55.932 56.7011 57.2906 55.57 58.44C53.2339 60.753 50.0774 62.0473 46.79 62.04H45.37C43.7124 62.0346 42.073 61.6945 40.55 61.04C39.0686 60.4303 37.7226 59.5331 36.5898 58.4003C35.4569 57.2675 34.5598 55.9214 33.95 54.44C33.2955 52.917 32.9554 51.2776 32.95 49.62V33.59C32.9519 30.3025 34.2489 27.1481 36.56 24.81C37.7104 23.68 39.0687 22.7835 40.56 22.17C42.0827 21.5306 43.7185 21.2041 45.37 21.21V21.26ZM46.79 27.86H45.37C44.6079 27.8506 43.8516 27.9937 43.1455 28.2807C42.4395 28.5677 41.7979 28.993 41.2585 29.5314C40.7191 30.0699 40.2928 30.7107 40.0045 31.4163C39.7163 32.1218 39.5719 32.8779 39.58 33.64V49.58C39.5733 50.3422 39.7186 51.0981 40.0072 51.8036C40.2958 52.5091 40.722 53.15 41.261 53.689C41.7999 54.228 42.4409 54.6543 43.1464 54.9429C43.8519 55.2315 44.6078 55.3767 45.37 55.37H46.79C47.5449 55.377 48.2934 55.2319 48.991 54.9432C49.6885 54.6546 50.3208 54.2284 50.85 53.69C51.407 53.1624 51.8478 52.5243 52.144 51.8166C52.4401 51.1088 52.5852 50.3471 52.57 49.58V33.59C52.5852 32.823 52.4401 32.0611 52.144 31.3534C51.8478 30.6457 51.407 30.0076 50.85 29.48C50.3189 28.9449 49.6861 28.5214 48.9888 28.2346C48.2915 27.9477 47.5439 27.8034 46.79 27.81V27.86Z" fill="white"/>
<path d="M72.57 74.8H66.02V0.450012H72.62L72.57 74.8Z" fill="white"/>
<path d="M105.56 74.8H98.96V73.38C97.1831 74.3312 95.1953 74.8195 93.18 74.8H91.75C90.0924 74.7937 88.4532 74.4536 86.93 73.8C85.4465 73.1942 84.0897 72.3157 82.93 71.21C81.8002 70.1026 80.8878 68.7933 80.2399 67.35C79.5616 65.8171 79.2206 64.1562 79.2399 62.48V33.7C79.2454 32.0392 79.5855 30.3964 80.2399 28.87C80.859 27.3696 81.7739 26.0092 82.93 24.87C84.0904 23.7551 85.4464 22.8635 86.93 22.24C88.4657 21.5703 90.1247 21.2297 91.8 21.24H105.61L105.56 74.8ZM98.96 62.52V27.91H91.75C90.9752 27.8994 90.2065 28.0474 89.4911 28.3449C88.7757 28.6424 88.1287 29.0831 87.59 29.64C87.0406 30.1629 86.6045 30.7931 86.3087 31.4915C86.0128 32.1899 85.8635 32.9416 85.87 33.7V62.52C85.8504 63.2803 85.9938 64.0359 86.2905 64.7362C86.5872 65.4365 87.0302 66.0651 87.59 66.58C88.7076 67.6505 90.2026 68.2363 91.75 68.21H93.18C94.6922 68.2224 96.148 67.6365 97.23 66.58C97.7931 66.0673 98.2391 65.4392 98.5377 64.7386C98.8362 64.038 98.9802 63.2813 98.96 62.52Z" fill="white"/>
<path d="M118.85 0.450012V21.36H126.16C129.445 21.3646 132.597 22.6572 134.94 24.96C137.253 27.3006 138.551 30.459 138.55 33.75V62.57C138.56 64.2453 138.22 65.9043 137.55 67.44C136.938 68.8908 136.04 70.2036 134.91 71.3C133.754 72.4101 132.396 73.2892 130.91 73.89C129.387 74.5445 127.748 74.8846 126.09 74.89H112.19V0.450012H118.85ZM118.85 27.96V68.26H126.16C127.675 68.274 129.135 67.688 130.22 66.63C130.781 66.1157 131.226 65.4873 131.524 64.7871C131.822 64.0869 131.968 63.3309 131.95 62.57V33.7C131.919 32.174 131.299 30.7191 130.22 29.6398C129.141 28.5606 127.686 27.9407 126.16 27.91L118.85 27.96Z" fill="white"/>
<path d="M171.53 58.26V62.52C171.536 64.1949 171.195 65.8529 170.53 67.39C169.918 68.8408 169.02 70.1536 167.89 71.25C166.732 72.358 165.375 73.2368 163.89 73.84C162.367 74.4945 160.728 74.8346 159.07 74.84H157.65C155.992 74.8346 154.353 74.4945 152.83 73.84C151.347 73.2343 149.99 72.3557 148.83 71.25C147.697 70.1452 146.784 68.8354 146.14 67.39C145.457 65.8586 145.116 64.1967 145.14 62.52V33.59C145.128 31.9307 145.469 30.2877 146.14 28.77C146.779 27.3069 147.692 25.9796 148.83 24.86C149.99 23.7573 151.347 22.8822 152.83 22.28C154.352 21.621 155.992 21.2807 157.65 21.28H159.07C160.728 21.2807 162.368 21.621 163.89 22.28C165.374 22.8798 166.731 23.7552 167.89 24.86C169.026 25.9713 169.924 27.3015 170.53 28.77C171.184 30.2932 171.524 31.9325 171.53 33.59V51.15H151.84V62.52C151.822 63.281 151.968 64.0368 152.266 64.7371C152.564 65.4373 153.009 66.0657 153.57 66.58C154.688 67.6505 156.183 68.2363 157.73 68.21H159.15C160.665 68.224 162.125 67.638 163.21 66.58C163.771 66.0657 164.216 65.4373 164.514 64.7371C164.812 64.0368 164.958 63.281 164.94 62.52V58.26H171.53ZM164.94 44.56V33.56C164.956 32.7993 164.81 32.044 164.511 31.3441C164.213 30.6441 163.77 30.0156 163.21 29.5C162.124 28.4447 160.664 27.8623 159.15 27.88H157.73C156.184 27.85 154.689 28.4323 153.57 29.5C153.01 30.0156 152.567 30.6441 152.269 31.3441C151.97 32.044 151.824 32.7993 151.84 33.56V44.56H164.94Z" fill="white"/>
<path d="M184.83 74.8H178.23V0.450012H184.83V74.8Z" fill="white"/>
<path d="M198.13 74.8H191.53V0.450012H198.13V74.8Z" fill="white"/>
<path d="M231.12 74.8H224.52V73.38C222.74 74.3328 220.749 74.8212 218.73 74.8H217.31C215.652 74.7946 214.013 74.4544 212.49 73.8C211.007 73.1942 209.65 72.3157 208.49 71.21C207.357 70.1052 206.444 68.7954 205.8 67.35C205.117 65.8186 204.776 64.1567 204.8 62.48V33.7C204.805 32.0392 205.146 30.3964 205.8 28.87C206.415 27.3675 207.33 26.0064 208.49 24.87C209.65 23.7551 211.006 22.8635 212.49 22.24C214.026 21.5703 215.685 21.2297 217.36 21.24H231.12V74.8ZM224.52 62.52V27.91H217.31C216.535 27.8994 215.767 28.0474 215.051 28.3449C214.336 28.6424 213.689 29.0831 213.15 29.64C212.599 30.1625 212.162 30.7923 211.864 31.4906C211.567 32.189 211.415 32.9409 211.42 33.7V62.52C211.402 63.2809 211.548 64.0368 211.846 64.737C212.144 65.4373 212.589 66.0656 213.15 66.58C214.268 67.6505 215.763 68.2363 217.31 68.21H218.73C220.245 68.2239 221.705 67.638 222.79 66.58C223.351 66.0656 223.796 65.4373 224.094 64.737C224.392 64.0368 224.538 63.2809 224.52 62.52Z" fill="white"/>
</g>
<defs>
<clipPath id="clip0_146_4818">
<rect width="231.12" height="74.4" fill="white" transform="translate(0 0.400024)"/>
</clipPath>
</defs>
</svg>
