<svg width="179" height="58" viewBox="0 0 179 58" fill="none" xmlns="http://www.w3.org/2000/svg"><g clip-path="url(#clip0_146_4969)"><path d="M5.104.039v16.3h5.661a9.366 9.366 0 0 1 3.733.78 9.72 9.72 0 0 1 3.098 2.012 9.156 9.156 0 0 1 2.045 3.048 9.684 9.684 0 0 1 .775 3.757V48.49a4.178 4.178 0 0 0 1.332 3.165 4.43 4.43 0 0 0 3.144 1.271h20.989v5.137H24.892a9.48 9.48 0 0 1-3.733-.78 9.923 9.923 0 0 1-3.098-2.018 9.265 9.265 0 0 1-2.045-3.01 9.535 9.535 0 0 1-.774-3.796V25.874a4.21 4.21 0 0 0-1.34-3.165 4.422 4.422 0 0 0-3.144-1.263H5.096V58H.016V.039h5.088Zm30.035 16.223h1.1a9.482 9.482 0 0 1 3.732.78 9.753 9.753 0 0 1 3.098 2.057 9.73 9.73 0 0 1 2.788 6.845V38.37a9.65 9.65 0 0 1-.774 3.758 9.696 9.696 0 0 1-2.045 3.118 9.602 9.602 0 0 1-6.8 2.807h-1.1a9.48 9.48 0 0 1-3.732-.78 9.39 9.39 0 0 1-3.068-2.058 9.46 9.46 0 0 1-2.044-3.087 9.65 9.65 0 0 1-.775-3.758V25.874a9.778 9.778 0 0 1 2.796-6.845 9.668 9.668 0 0 1 3.098-2.058 9.481 9.481 0 0 1 3.726-.748v.039Zm1.1 5.145h-1.1a4.404 4.404 0 0 0-3.185 1.303 4.461 4.461 0 0 0-1.3 3.203v12.426a4.5 4.5 0 0 0 1.302 3.203 4.443 4.443 0 0 0 3.183 1.311h1.1a4.33 4.33 0 0 0 3.144-1.31 4.32 4.32 0 0 0 1.332-3.204V25.874a4.32 4.32 0 0 0-1.332-3.204 4.375 4.375 0 0 0-3.145-1.302v.039ZM56.205 58h-5.073V.039h5.111L56.205 58Zm25.55 0h-5.111v-1.107A9.247 9.247 0 0 1 72.166 58h-1.108a9.504 9.504 0 0 1-3.733-.78 9.922 9.922 0 0 1-3.098-2.019 9.877 9.877 0 0 1-2.083-3.009 9.172 9.172 0 0 1-.775-3.796V25.96a9.69 9.69 0 0 1 .775-3.766 9.429 9.429 0 0 1 2.083-3.118 10.14 10.14 0 0 1 3.098-2.05 9.241 9.241 0 0 1 3.772-.78h10.696L81.755 58Zm-5.111-9.573V21.446h-5.585a4.375 4.375 0 0 0-3.221 1.349 4.32 4.32 0 0 0-1.333 3.165v22.467a4.177 4.177 0 0 0 1.333 3.165 4.53 4.53 0 0 0 3.221 1.27h1.108a4.422 4.422 0 0 0 3.137-1.27 4.131 4.131 0 0 0 1.34-3.165Z" fill="#3C3B21"/><path d="M92.048.039v16.3h5.662a9.689 9.689 0 0 1 6.8 2.807A9.783 9.783 0 0 1 107.306 26v22.467a9.418 9.418 0 0 1-.775 3.796 9.137 9.137 0 0 1-2.045 3.01 9.738 9.738 0 0 1-3.098 2.019 9.476 9.476 0 0 1-3.733.78H86.89V.038h5.158Zm0 21.446v31.417h5.662a4.43 4.43 0 0 0 3.144-1.271 4.183 4.183 0 0 0 1.34-3.165V25.96a4.623 4.623 0 0 0-1.34-3.166 4.563 4.563 0 0 0-3.144-1.348l-5.662.039Zm40.8 23.621v3.32a9.524 9.524 0 0 1-.774 3.797 9.153 9.153 0 0 1-2.045 3.01 9.833 9.833 0 0 1-3.098 2.019 9.48 9.48 0 0 1-3.733.78h-1.1a9.483 9.483 0 0 1-3.733-.78 9.919 9.919 0 0 1-3.098-2.02 9.753 9.753 0 0 1-2.083-3.009 9.049 9.049 0 0 1-.775-3.796V25.874a9.18 9.18 0 0 1 .775-3.758 9.758 9.758 0 0 1 2.083-3.048 9.911 9.911 0 0 1 3.098-2.011 9.35 9.35 0 0 1 3.733-.78h1.1c1.284 0 2.555.266 3.733.78a9.807 9.807 0 0 1 3.098 2.011 9.168 9.168 0 0 1 2.045 3.048 9.681 9.681 0 0 1 .774 3.758v13.69h-15.25v8.863a4.169 4.169 0 0 0 1.34 3.165 4.532 4.532 0 0 0 3.222 1.27h1.1a4.428 4.428 0 0 0 3.144-1.27 4.183 4.183 0 0 0 1.34-3.165v-3.321h5.104Zm-5.104-10.68V25.85a4.213 4.213 0 0 0-1.34-3.165 4.421 4.421 0 0 0-3.144-1.262h-1.1a4.525 4.525 0 0 0-3.222 1.262 4.193 4.193 0 0 0-1.34 3.166v8.575h10.146ZM143.149 58h-5.112V.039h5.112V58Zm10.301 0h-5.112V.039h5.112V58ZM179 58h-5.112v-1.107A9.242 9.242 0 0 1 169.404 58h-1.1a9.481 9.481 0 0 1-3.733-.78 9.93 9.93 0 0 1-3.098-2.019 9.75 9.75 0 0 1-2.083-3.009 9.064 9.064 0 0 1-.775-3.796V25.96a9.702 9.702 0 0 1 .775-3.766 9.297 9.297 0 0 1 2.083-3.118 10.143 10.143 0 0 1 3.098-2.05 9.246 9.246 0 0 1 3.772-.78H179V58Zm-5.112-9.573V21.446h-5.584a4.372 4.372 0 0 0-1.749.339 4.408 4.408 0 0 0-1.473 1.01 4.334 4.334 0 0 0-1.339 3.165v22.467a4.182 4.182 0 0 0 1.339 3.165 4.532 4.532 0 0 0 3.222 1.27h1.1a4.432 4.432 0 0 0 3.145-1.27c.434-.401.778-.89 1.009-1.437a4.167 4.167 0 0 0 .33-1.728Z" fill="#8D8668"/></g></svg>