<svg width="179" height="58" viewBox="0 0 179 58" fill="none" xmlns="http://www.w3.org/2000/svg">
<g clip-path="url(#clip0_146_4969)">
<path d="M5.10389 0.0390015V16.3398H10.7654C12.0496 16.3403 13.3201 16.6056 14.4985 17.1194C15.649 17.5849 16.7006 18.2676 17.5964 19.1307C18.4758 19.997 19.1715 21.034 19.6411 22.1788C20.1471 23.3663 20.4105 24.6442 20.4156 25.9363V48.4893C20.4004 49.082 20.5114 49.671 20.7412 50.217C20.971 50.7629 21.3141 51.253 21.7477 51.6543C22.588 52.4791 23.7184 52.9359 24.8921 52.925H45.8807V58.0624H24.8921C23.6083 58.0582 22.3386 57.793 21.159 57.2828C20.0101 56.8106 18.9593 56.1257 18.0611 55.2638C17.1882 54.407 16.4932 53.3841 16.0164 52.2546C15.5013 51.0563 15.2376 49.7638 15.2419 48.4581V25.874C15.2541 25.281 15.1409 24.6921 14.9099 24.1465C14.679 23.6008 14.3354 23.1108 13.9021 22.7089C13.0609 21.8862 11.9304 21.4322 10.7577 21.446H5.09614V58H0.0154877V0.0390015H5.10389ZM35.1386 16.2618H36.2384C37.5222 16.2661 38.7919 16.5312 39.9714 17.0414C41.1254 17.5216 42.1771 18.2203 43.0694 19.0995C44.8607 20.9206 45.8631 23.3814 45.8575 25.9441V38.3704C45.8533 39.6627 45.5899 40.9407 45.083 42.128C44.6089 43.2911 43.9144 44.3502 43.0384 45.2463C41.2291 47.0494 38.7844 48.0584 36.2384 48.0527H35.1386C33.8548 48.0485 32.5851 47.7834 31.4056 47.2732C30.2582 46.7978 29.2157 46.0984 28.3384 45.2153C27.461 44.3322 26.7662 43.2829 26.2939 42.128C25.787 40.9407 25.5236 39.6627 25.5194 38.3704V25.874C25.5209 23.3111 26.5254 20.852 28.3153 19.0293C29.2063 18.1484 30.2583 17.4495 31.4133 16.9712C32.5926 16.4728 33.8595 16.2183 35.1386 16.2229V16.2618ZM36.2384 21.407H35.1386C34.5483 21.3997 33.9626 21.5112 33.4158 21.735C32.8689 21.9587 32.372 22.2902 31.9543 22.71C31.5365 23.1298 31.2064 23.6293 30.9831 24.1794C30.7599 24.7294 30.6481 25.3188 30.6543 25.9129V38.3393C30.6491 38.9335 30.7616 39.5227 30.9851 40.0727C31.2087 40.6227 31.5387 41.1224 31.9562 41.5425C32.3736 41.9627 32.87 42.295 33.4164 42.52C33.9628 42.745 34.5482 42.8582 35.1386 42.853H36.2384C36.823 42.8584 37.4028 42.7453 37.943 42.5203C38.4833 42.2953 38.9729 41.963 39.3828 41.5433C39.8142 41.132 40.1556 40.6346 40.3849 40.0828C40.6143 39.5311 40.7267 38.9373 40.7149 38.3393V25.874C40.7267 25.276 40.6143 24.6821 40.3849 24.1303C40.1556 23.5786 39.8142 23.0812 39.3828 22.6699C38.9715 22.2527 38.4813 21.9226 37.9413 21.699C37.4013 21.4754 36.8223 21.3629 36.2384 21.368V21.407Z" fill="#3C3B21"/>
<path d="M56.2047 58H51.1318V0.0390015H56.2434L56.2047 58Z" fill="#3C3B21"/>
<path d="M81.7551 58H76.6435V56.893C75.2673 57.6345 73.7278 58.0152 72.1669 58H71.0594C69.7756 57.9951 68.506 57.73 67.3263 57.2204C66.1774 56.7482 65.1266 56.0633 64.2284 55.2013C63.3534 54.338 62.6467 53.3174 62.145 52.1922C61.6196 50.9972 61.3555 49.7024 61.3705 48.3957V25.9597C61.3747 24.6649 61.6381 23.3843 62.145 22.1943C62.6245 21.0247 63.333 19.9642 64.2284 19.0761C65.1272 18.2069 66.1773 17.5119 67.3263 17.0258C68.5157 16.5037 69.8006 16.2382 71.0981 16.2462H81.7938L81.7551 58ZM76.6435 48.4269V21.446H71.0594C70.4594 21.4377 69.864 21.5531 69.3099 21.785C68.7558 22.0169 68.2548 22.3605 67.8375 22.7946C67.4121 23.2023 67.0743 23.6936 66.8452 24.238C66.616 24.7824 66.5004 25.3684 66.5054 25.9597V48.4269C66.4902 49.0196 66.6013 49.6086 66.8311 50.1545C67.0608 50.7005 67.404 51.1906 67.8375 51.5919C68.7031 52.4264 69.861 52.8831 71.0594 52.8626H72.1669C73.3381 52.8723 74.4656 52.4155 75.3036 51.5919C75.7398 51.1922 76.0852 50.7026 76.3164 50.1565C76.5476 49.6103 76.6592 49.0204 76.6435 48.4269Z" fill="#3C3B21"/>
<path d="M92.0481 0.0390015V16.3398H97.7096C100.254 16.3434 102.695 17.351 104.51 19.1463C106.301 20.9709 107.306 23.4331 107.306 25.9987V48.4659C107.313 49.7719 107.05 51.0652 106.531 52.2624C106.057 53.3934 105.362 54.4168 104.486 55.2715C103.591 56.1369 102.539 56.8222 101.388 57.2906C100.209 57.8008 98.9392 58.066 97.6554 58.0702H86.89V0.0390015H92.0481ZM92.0481 21.485V52.9016H97.7096C98.8833 52.9125 100.014 52.4557 100.854 51.6309C101.289 51.23 101.633 50.7401 101.864 50.1943C102.095 49.6484 102.208 49.0591 102.194 48.4659V25.9597C102.17 24.7701 101.69 23.6359 100.854 22.7945C100.018 21.9532 98.8915 21.4699 97.7096 21.446L92.0481 21.485Z" fill="#8D8668"/>
<path d="M132.848 45.1059V48.4269C132.853 49.7325 132.589 51.0251 132.074 52.2234C131.6 53.3544 130.904 54.3777 130.029 55.2325C129.132 56.0962 128.081 56.7813 126.931 57.2516C125.752 57.7618 124.482 58.0269 123.198 58.0312H122.098C120.814 58.0269 119.545 57.7618 118.365 57.2516C117.216 56.7794 116.165 56.0945 115.267 55.2325C114.39 54.3712 113.683 53.3501 113.184 52.2234C112.655 51.0295 112.39 49.734 112.409 48.4269V25.8739C112.4 24.5803 112.664 23.2995 113.184 22.1164C113.679 20.9757 114.386 19.941 115.267 19.0682C116.166 18.2086 117.217 17.5264 118.365 17.057C119.544 16.5432 120.814 16.2779 122.098 16.2774H123.198C124.482 16.2779 125.753 16.5432 126.931 17.057C128.081 17.5246 129.132 18.207 130.029 19.0682C130.908 19.9345 131.604 20.9715 132.074 22.1164C132.58 23.3038 132.843 24.5818 132.848 25.8739V39.5632H117.598V48.4269C117.585 49.0201 117.697 49.6093 117.928 50.1552C118.159 50.7011 118.504 51.1909 118.938 51.5919C119.804 52.4264 120.962 52.8831 122.16 52.8626H123.26C124.434 52.8735 125.564 52.4167 126.404 51.5919C126.839 51.1909 127.183 50.7011 127.414 50.1552C127.645 49.6093 127.758 49.0201 127.744 48.4269V45.1059H132.848ZM127.744 34.4258V25.8505C127.756 25.2575 127.643 24.6687 127.412 24.123C127.181 23.5774 126.838 23.0874 126.404 22.6854C125.563 21.8628 124.433 21.4087 123.26 21.4225H122.16C120.963 21.3991 119.805 21.8531 118.938 22.6854C118.505 23.0874 118.161 23.5774 117.93 24.123C117.699 24.6687 117.586 25.2575 117.598 25.8505V34.4258H127.744Z" fill="#8D8668"/>
<path d="M143.149 58H138.037V0.0390015H143.149V58Z" fill="#8D8668"/>
<path d="M153.45 58H148.338V0.0390015H153.45V58Z" fill="#8D8668"/>
<path d="M179 58H173.888V56.893C172.51 57.6358 170.968 58.0165 169.404 58H168.304C167.02 57.9958 165.751 57.7306 164.571 57.2204C163.422 56.7482 162.372 56.0633 161.473 55.2013C160.596 54.3401 159.889 53.319 159.39 52.1922C158.861 50.9984 158.597 49.7028 158.615 48.3957V25.9597C158.62 24.6649 158.883 23.3843 159.39 22.1943C159.866 21.023 160.575 19.962 161.473 19.0761C162.372 18.2069 163.422 17.5119 164.571 17.0258C165.761 16.5037 167.046 16.2382 168.343 16.2462H179V58ZM173.888 48.4269V21.446H168.304C167.704 21.4377 167.109 21.5531 166.555 21.785C166.001 22.0169 165.5 22.3605 165.082 22.7946C164.656 23.2019 164.317 23.6929 164.087 24.2373C163.856 24.7817 163.739 25.3679 163.743 25.9597V48.4269C163.729 49.0201 163.841 49.6093 164.072 50.1552C164.304 50.7011 164.648 51.191 165.082 51.5919C165.948 52.4264 167.106 52.8831 168.304 52.8626H169.404C170.578 52.8735 171.708 52.4167 172.549 51.5919C172.983 51.191 173.327 50.7011 173.558 50.1552C173.79 49.6093 173.902 49.0201 173.888 48.4269Z" fill="#8D8668"/>
</g>
<defs>
<clipPath id="clip0_146_4969">
<rect width="179" height="58" fill="white"/>
</clipPath>
</defs>
</svg>
